PathFileType	4	(X/Y/Z)	C:\Users\Basilio\Documents\Thesis Gigler\squatting_fais\c3dfiles\040\SLS_pre_back4\markers_experimental.trc
DataRate	CameraRate	NumFrames	NumMarkers	Units	OrigDataRate	OrigDataStartFrame	OrigNumFrames
200.000000	200.000000	4	63	mm	200.000000	468	1249
Frame#	Time	FHD			LBHD			RBHD			C7			T10			CLAV			LSHO			LUUPA			LMUPA			LDUPA			LLEP			LMEP			LRAD			LUL			LRFIN			RSHO			RUPA1			RMUPA			RDUPA			RLEP			RMEP			RRAD			RUL			RUFIN			LASI			RASI			USACR			LSACR			RSACR			LTHI1			LTHI2			LTHI3			LTHI4			LLFC			LMFC			LTIB1			LTIB2			LTIB3			LTIB4			LLMAL			LMMAL			LHEE			LMT1			LMT2			LMT5			RTHI			RTHI2			RTHI3			RTHI4			RLFC			RMFC			RTIB1			RTIB2			RTIB3			RTIB4			RLMAL			RMMAL			RHEE			RMT1			RMT2			RMT5			*61			*62			
		X1	Y1	Z1	X2	Y2	Z2	X3	Y3	Z3	X4	Y4	Z4	X5	Y5	Z5	X6	Y6	Z6	X7	Y7	Z7	X8	Y8	Z8	X9	Y9	Z9	X10	Y10	Z10	X11	Y11	Z11	X12	Y12	Z12	X13	Y13	Z13	X14	Y14	Z14	X15	Y15	Z15	X16	Y16	Z16	X17	Y17	Z17	X18	Y18	Z18	X19	Y19	Z19	X20	Y20	Z20	X21	Y21	Z21	X22	Y22	Z22	X23	Y23	Z23	X24	Y24	Z24	X25	Y25	Z25	X26	Y26	Z26	X27	Y27	Z27	X28	Y28	Z28	X29	Y29	Z29	X30	Y30	Z30	X31	Y31	Z31	X32	Y32	Z32	X33	Y33	Z33	X34	Y34	Z34	X35	Y35	Z35	X36	Y36	Z36	X37	Y37	Z37	X38	Y38	Z38	X39	Y39	Z39	X40	Y40	Z40	X41	Y41	Z41	X42	Y42	Z42	X43	Y43	Z43	X44	Y44	Z44	X45	Y45	Z45	X46	Y46	Z46	X47	Y47	Z47	X48	Y48	Z48	X49	Y49	Z49	X50	Y50	Z50	X51	Y51	Z51	X52	Y52	Z52	X53	Y53	Z53	X54	Y54	Z54	X55	Y55	Z55	X56	Y56	Z56	X57	Y57	Z57	X58	Y58	Z58	X59	Y59	Z59	X60	Y60	Z60	X61	Y61	Z61	X62	Y62	Z62	X63	Y63	Z63	

469	2.34	11.3491325378418	1476.5830078125	-1227.4208984375	-116.9039077758789	1432.340454101563	-1264.71044921875	-169.8666534423828	1400.701416015625	-1130.76171875	-191.790512084961	1316.467529296875	-1171.936401367188	-389.5784912109376	1085.263916015625	-1126.719360351563	-106.7727508544922	1201.7109375	-1179.413696289063	-134.174301147461	1290.010009765625	-1306.3671875	3.508761167526246	1226.41650390625	-1396.265747070313	36.41867828369141	1230.176025390625	-1359.419555664063	67.98941802978517	1201.311889648438	-1403.740356445313	119.3554611206055	1164.500122070313	-1408.990966796875	99.26078033447268	1108.752319335938	-1378.959228515625	386.9002380371095	1133.104858398438	-1288.463989257813	391.1814880371095	1133.787109375	-1364.3203125	483.3858032226564	1134.382202148438	-1297.759765625	-97.37194824218753	1280.706665039063	-1051.285278320313	48.61754989624025	1198.993774414063	-986.9214477539065	75.72480773925783	1213.94189453125	-1024.42236328125	112.0419845581055	1170.744262695313	-999.516784667969	169.6575775146485	1151.01806640625	-1019.225280761719	142.8756256103516	1093.982666015625	-1061.916259765625	404.1006774902345	1157.731079101563	-1200.795043945313	426.0825805664064	1140.877319335938	-1128.765380859375	500.186248779297	1162.424682617188	-1212.740844726563	-338.1676330566407	859.671325683594	-1219.9248046875	-342.5988159179688	843.8160400390627	-999.2502441406252	-483.6940307617189	975.2738037109377	-1111.081909179688	-509.4156799316407	954.9384765625002	-1141.28564453125	-506.735076904297	951.1751098632815	-1084.495361328125	-339.2925720214844	651.4846191406251	-1276.916381835938	-258.8186950683594	622.4228515625001	-1275.491821289063	-225.4132690429688	655.3121948242189	-1274.041015625	-239.5638427734376	568.9389648437501	-1253.701782226563	-148.5227813720703	488.4135742187501	-1226.449829101563	-170.4354553222657	485.0740966796876	-1106.795288085938	-185.3212585449219	281.5241088867188	-1158.542358398438	-258.1849365234376	269.1269531250001	-1207.993530273438	-225.0141601562501	249.4427795410157	-1185.5029296875	-258.3078918457032	180.5790100097657	-1144.722534179688	-355.5442504882813	126.3168106079102	-1166.943237304688	-327.8237609863282	137.9252319335938	-1080.69189453125	-429.0984191894532	100.3429489135742	-1120.603393554688	-216.4995422363282	54.20151519775392	-1100.41552734375	-215.226791381836	53.23655319213869	-1146.740844726563	-269.5161132812501	44.91572952270509	-1195.350952148438	-463.515838623047	605.9345092773439	-939.2106933593752	-448.1139221191407	541.2481689453126	-945.4675292968752	-417.1741638183595	532.4967651367189	-955.154724121094	-499.7985229492189	476.254119873047	-951.7051391601565	-534.0055541992189	371.9915161132813	-955.201843261719	-564.1228027343751	377.2526245117188	-1082.5830078125	-701.3742675781251	293.5338134765626	-959.7338867187502	-774.841491699219	358.5214843750001	-910.4294433593752	-778.6558837890627	313.4553527832032	-926.6461181640627	-830.3691406250002	299.4144592285157	-953.0156860351565	-943.9497680664065	341.1039428710938	-904.3913574218752	-942.805114746094	339.7881774902344	-995.9277954101565	-991.420837402344	414.4319458007814	-943.9371337890627	-1011.211303710938	200.5692596435547	-997.8516235351565	-1007.717651367188	191.9658966064453	-957.9866333007815	-1030.715087890625	225.0307922363282	-899.6322021484377	nan	nan	nan	nan	nan	nan	
470	2.345	13.46197700500489	1474.309936523438	-1226.8359375	-115.8981704711914	1430.24658203125	-1264.166625976563	-168.4518585205078	1398.5185546875	-1130.453857421875	-191.1864166259766	1314.9052734375	-1171.557739257813	-389.6360168457032	1083.686157226563	-1127.020141601563	-106.1648559570313	1200.04296875	-1179.185913085938	-133.4425964355469	1288.433349609375	-1306.023071289063	4.951967239379884	1225.05908203125	-1396.7841796875	37.43937301635743	1228.553588867188	-1360.169799804688	69.23574066162111	1199.643798828125	-1403.696899414063	120.7003479003907	1162.919555664063	-1409.252197265625	99.94340515136722	1107.333618164063	-1379.486450195313	387.444305419922	1131.134887695313	-1289.579467773438	392.0830688476564	1132.182373046875	-1365.11572265625	484.4436950683595	1132.08544921875	-1298.322143554688	-96.68939208984378	1278.50048828125	-1051.43115234375	49.13873291015626	1196.80029296875	-987.001647949219	76.49020385742189	1211.9658203125	-1024.304321289063	112.8291854858399	1168.988037109375	-999.476745605469	170.1564025878907	1149.654541015625	-1019.431701660156	143.3027496337891	1092.188842773438	-1061.493286132813	404.771697998047	1156.532592773438	-1200.572143554688	425.9140930175782	1138.487915039063	-1129.501220703125	501.470672607422	1161.1904296875	-1212.51904296875	-338.0218200683594	858.3369140625002	-1220.085205078125	-343.0913085937501	842.6638793945315	-999.3425903320315	-483.9701538085939	974.290954589844	-1111.429321289063	-509.4348144531251	953.9385375976565	-1141.511840820313	-506.8259582519532	950.1809082031252	-1084.955810546875	-338.8056335449219	650.6792602539064	-1276.543701171875	-258.1742248535157	621.8853759765626	-1274.640014648438	-224.9773864746094	654.9685668945314	-1273.127563476563	-239.0806884765626	568.6277465820314	-1252.944580078125	-147.9899139404297	488.3603820800782	-1225.14892578125	-170.4568634033203	485.4884033203126	-1105.405395507813	-185.0648803710938	281.1565246582032	-1157.410888671875	-257.7254028320313	269.1210632324219	-1207.197998046875	-224.4839782714844	249.5809173583985	-1184.494018554688	-258.2432250976563	180.5713348388672	-1144.116943359375	-355.4020080566407	126.3202285766602	-1166.753784179688	-327.8333129882813	137.7901763916016	-1080.315063476563	-429.0085449218751	100.3208084106446	-1120.509765625	-216.4317321777344	54.22581863403322	-1100.2958984375	-215.1021575927735	53.24074935913087	-1146.314697265625	-269.9866638183594	45.43128967285157	-1195.384887695313	-463.9158935546876	604.5081787109376	-939.468688964844	-448.6461486816407	539.6084594726564	-945.5845947265627	-417.8500366210939	531.9029541015626	-955.091735839844	-500.4364013671876	475.2908020019532	-951.502868652344	-534.6754150390626	371.2389526367188	-955.2092285156252	-564.6821289062501	376.1639099121094	-1082.915893554688	-701.9148559570314	292.8957214355469	-959.7456665039065	-774.906433105469	357.7117614746094	-910.4605102539065	-778.9375610351565	312.7113342285157	-926.6455078125002	-831.0378417968752	298.7702941894532	-952.8627929687502	-944.519958496094	340.3449707031251	-904.335876464844	-942.804138183594	338.3112487792969	-995.6658935546877	-991.9772949218752	414.0038146972657	-943.7519531250002	-1012.1611328125	200.785385131836	-997.927185058594	-1008.634643554688	191.5366973876953	-957.0761718750002	-1031.358032226563	224.7523193359376	-899.0047607421877	nan	nan	nan	nan	nan	nan	
471	2.35	13.10261726379395	1472.6376953125	-1226.5546875	-115.0065002441407	1428.440551757813	-1263.791137695313	-167.721435546875	1396.470703125	-1130.035766601563	-190.5018005371094	1312.873901367188	-1171.655151367188	-388.8959045410157	1082.733520507813	-1126.988403320313	-105.4802703857422	1197.904541015625	-1179.030883789063	-132.7066040039063	1286.92333984375	-1305.700317382813	5.379210948944093	1223.645141601563	-1396.2998046875	38.26488876342774	1227.091186523438	-1359.57421875	69.58135223388673	1198.5634765625	-1403.860717773438	121.3385772705078	1161.548095703125	-1409.496704101563	100.7800445556641	1105.827758789063	-1380.064331054688	387.8671875000001	1129.255493164063	-1290.454345703125	393.0018310546876	1130.545288085938	-1365.7919921875	485.1232299804689	1130.183471679688	-1299.195190429688	-96.37959289550784	1276.13134765625	-1051.8876953125	49.69819641113283	1194.571411132813	-986.894714355469	77.30065917968751	1209.89013671875	-1024.210571289063	113.4117431640625	1166.7568359375	-999.2847290039065	170.6417388916016	1147.826416015625	-1019.342102050781	144.6714172363282	1091.143798828125	-1061.344116210938	406.2173156738282	1155.635131835938	-1201.077514648438	426.8894042968751	1137.495849609375	-1129.185180664063	502.0261230468751	1160.078857421875	-1212.248779296875	-337.8277282714844	856.772644042969	-1220.017944335938	-344.0562744140626	841.2585449218752	-999.296813964844	-483.901580810547	973.5043945312502	-1111.76708984375	-509.6137695312501	953.043640136719	-1142.100463867188	-507.1230773925782	949.0393066406252	-1085.284912109375	-338.4078674316407	650.1665649414064	-1276.052490234375	-257.5059509277344	621.3258666992189	-1273.981323242188	-224.3855438232422	654.6126098632814	-1272.256958007813	-238.4286499023438	568.2205200195314	-1252.1728515625	-147.0787048339844	488.0375061035157	-1223.673217773438	-170.3180694580078	485.3292236328126	-1104.608520507813	-184.842514038086	281.1187438964844	-1156.4287109375	-258.1129760742188	269.2670288085938	-1206.7109375	-223.7626647949219	249.4085388183594	-1183.720336914063	-258.0278930664063	179.0758972167969	-1143.637451171875	-355.1704711914063	126.4192962646485	-1166.537353515625	-327.7955322265626	137.5375213623047	-1079.968139648438	-429.0642395019532	100.3436279296875	-1120.448120117188	-216.1895294189454	53.54840087890626	-1100.417846679688	-215.4547424316407	54.07480239868165	-1145.935180664063	-269.8872680664063	45.6547966003418	-1195.317504882813	-464.6846618652345	603.4854125976564	-939.6497802734377	-449.3914184570314	538.7808837890626	-945.9328613281252	-418.7522277832032	530.2130126953126	-955.486999511719	-501.5969238281251	474.141571044922	-952.1702880859377	-535.1289672851564	370.0007019042969	-955.3679809570315	-565.2478027343751	374.9194641113282	-1083.310302734375	-702.5001220703126	291.6939392089844	-959.8557128906252	-775.2412719726565	357.0402526855469	-910.491394042969	-779.633728027344	312.2553100585938	-926.4185180664065	-831.6115722656252	298.3343811035157	-953.2128906250002	-944.7173461914065	339.6997375488282	-904.2183227539065	-943.363708496094	337.8519287109376	-995.4785156250002	-992.325378417969	413.3895263671876	-943.5696411132815	-1012.801391601563	199.8815460205079	-997.1215820312502	-1009.035339355469	190.6363677978516	-956.3909301757815	-1030.962768554688	224.7121124267579	-898.2968750000002	nan	nan	nan	nan	nan	nan	
472	2.355	14.33609485626221	1470.464233398438	-1225.948608398438	-113.8619384765625	1426.265747070313	-1263.324584960938	-166.9190826416016	1394.397827148438	-1129.6416015625	-189.3677520751953	1311.233642578125	-1171.110961914063	-388.8392639160157	1081.529052734375	-1127.0546875	-104.6400833129883	1195.685180664063	-1178.813598632813	-131.4532470703125	1284.9755859375	-1305.260009765625	6.272109508514406	1222.3095703125	-1396.147338867188	38.66101455688477	1225.869995117188	-1359.488037109375	70.76636505126955	1197.246948242188	-1404.1455078125	122.3099746704102	1160.204833984375	-1409.87109375	101.4454956054688	1104.723876953125	-1380.600708007813	nan	nan	nan	393.8351440429689	1129.3291015625	-1366.6396484375	486.2681884765626	1127.892822265625	-1299.754638671875	-95.17664337158205	1274.428100585938	-1050.971069335938	50.76063919067384	1192.636474609375	-986.708923339844	78.05124664306642	1208.263427734375	-1024.152954101563	114.4428482055664	1165.19091796875	-999.349792480469	172.1775512695313	1146.129028320313	-1019.476135253906	145.3694152832032	1088.570922851563	-1062.154052734375	407.2739257812501	1154.133178710938	-1200.859985351563	427.8548278808595	1135.248046875	-1129.05615234375	502.7593688964845	1158.598388671875	-1212.061645507813	-338.2098083496094	856.0901489257815	-1219.598510742188	-344.8667602539063	840.2537231445315	-999.608093261719	-484.2054138183595	972.1868896484377	-1112.314331054688	-509.9414672851564	952.184020996094	-1142.542114257813	-507.3142395019532	948.0307617187502	-1085.983276367188	-337.9869079589844	649.4503784179689	-1275.651123046875	-256.8748168945313	620.7636108398439	-1273.193359375	-223.9158782958985	654.1794433593751	-1271.402587890625	-238.060775756836	567.8953247070314	-1251.583984375	-146.683090209961	488.0703125000001	-1222.491333007813	-170.0501708984375	485.1345520019532	-1103.834594726563	-184.3778686523438	280.8666381835938	-1155.623046875	-257.0186462402344	269.5250854492188	-1205.6591796875	-223.4779968261719	249.3785400390626	-1183.076782226563	-258.1436157226563	180.0114288330078	-1142.348510742188	-354.9384765625001	126.8557434082032	-1166.480712890625	-327.8708801269532	137.0082397460938	-1079.418212890625	-429.057098388672	100.3044052124024	-1120.436157226563	-216.1663513183594	53.49190139770509	-1100.274047851563	-215.4028015136719	54.1868019104004	-1145.7548828125	-269.7608032226563	45.85516357421876	-1195.16748046875	-465.2496032714845	602.4667358398439	-939.892028808594	-449.877899169922	537.4481201171876	-945.8911743164065	-419.3050537109376	529.1679687500001	-955.723083496094	-502.1413879394532	472.7819824218751	-952.353454589844	-535.8117675781251	368.9322204589844	-955.6434326171877	-565.6101684570314	373.7740173339844	-1083.40673828125	-702.9913940429689	290.8404846191407	-959.684265136719	-775.7297363281252	356.1596374511719	-910.4132080078127	-780.1552734375002	311.8186645507813	-926.1943969726565	-832.0401611328127	297.7895812988282	-952.6192016601565	-945.0845947265627	339.0592956542969	-904.0424804687502	-944.0659790039065	337.2319641113282	-995.3208007812502	-992.6441650390627	412.8838500976564	-943.386901855469	-1013.427734375	199.5025939941407	-996.713806152344	-1009.558227539063	190.7115173339844	-956.5739746093752	-1031.9609375	223.6981964111329	-898.2767333984377	nan	nan	nan	nan	nan	nan	
